HIERARCHY
ROOT joint_0
{
	OFFSET 0.000000 0.000000 0.000000
	CHANNELS 6 Xposition Yposition Zposition Zrotation Yrotation Xrotation 
	JOINT joint_1
	{
		OFFSET 7.566162 2.250183 114.799927
		CHANNELS 3 Zrotation Yrotation Xrotation
		JOINT joint_2
		{
			OFFSET -5.201660 -0.414001 104.936035
			CHANNELS 3 Zrotation Yrotation Xrotation
			JOINT joint_3
			{
				OFFSET -6.923584 -0.419739 104.718018
				CHANNELS 3 Zrotation Yrotation Xrotation
				JOINT joint_4
				{
					OFFSET 3.108887 2.881104 149.449951
					CHANNELS 3 Zrotation Yrotation Xrotation
					JOINT joint_5
					{
						OFFSET 19.988770 5.920349 90.786987
						CHANNELS 3 Zrotation Yrotation Xrotation
						End Site
						{
							OFFSET 0.000000 0.000000 0.000000
						}
					}
				}
				JOINT joint_6
				{
					OFFSET 9.283936 -30.015930 84.410034
					CHANNELS 3 Zrotation Yrotation Xrotation
					JOINT joint_7
					{
						OFFSET 47.243164 -155.716736 -23.241089
						CHANNELS 3 Zrotation Yrotation Xrotation
						JOINT joint_8
						{
							OFFSET 31.323730 -15.356873 -268.798950
							CHANNELS 3 Zrotation Yrotation Xrotation
							JOINT joint_9
							{
								OFFSET 28.122314 -2.114624 -262.450012
								CHANNELS 3 Zrotation Yrotation Xrotation
								End Site
								{
									OFFSET 0.000000 0.000000 0.000000
								}
							}
						}
					}
				}
				JOINT joint_10
				{
					OFFSET -5.580566 33.311218 83.498047
					CHANNELS 3 Zrotation Yrotation Xrotation
					JOINT joint_11
					{
						OFFSET -22.773438 160.515381 -27.138062
						CHANNELS 3 Zrotation Yrotation Xrotation
						JOINT joint_12
						{
							OFFSET 27.004395 30.848877 -267.937988
							CHANNELS 3 Zrotation Yrotation Xrotation
							JOINT joint_13
							{
								OFFSET 32.625000 14.824585 -261.518005
								CHANNELS 3 Zrotation Yrotation Xrotation
								End Site
								{
									OFFSET 0.000000 0.000000 0.000000
								}
							}
						}
					}
				}
			}
		}
	}
	JOINT joint_14
	{
		OFFSET 20.623535 -83.447632 -106.174011
		CHANNELS 3 Zrotation Yrotation Xrotation
		JOINT joint_15
		{
			OFFSET 0.661865 -23.563843 -459.915039
			CHANNELS 3 Zrotation Yrotation Xrotation
			JOINT joint_16
			{
				OFFSET -23.461670 -28.727966 -444.760971
				CHANNELS 3 Zrotation Yrotation Xrotation
				JOINT joint_17
				{
					OFFSET 178.992920 54.047363 -80.113001
					CHANNELS 3 Zrotation Yrotation Xrotation
					End Site
					{
						OFFSET 0.000000 0.000000 0.000000
					}
				}
			}
		}
	}
	JOINT joint_18
	{
		OFFSET -19.571533 84.686279 -105.380005
		CHANNELS 3 Zrotation Yrotation Xrotation
		JOINT joint_19
		{
			OFFSET -22.949951 3.639404 -459.933044
			CHANNELS 3 Zrotation Yrotation Xrotation
			JOINT joint_20
			{
				OFFSET -33.690674 4.092651 -445.010971
				CHANNELS 3 Zrotation Yrotation Xrotation
				JOINT joint_21
				{
					OFFSET 187.419678 18.953857 -76.759001
					CHANNELS 3 Zrotation Yrotation Xrotation
					End Site
					{
						OFFSET 0.000000 0.000000 0.000000
					}
				}
			}
		}
	}
}
MOTION
Frames: 18
Frame Time: 0.016667
-3221.043457 912.056152 1111.227051 -0.012269 -0.114059 -0.507960 0.030811 0.367691 0.736292 -0.016545 -0.165089 -0.176767 0.003959 0.201639 0.111001 0.015040 0.006907 -0.070320 0.000000 0.000000 0.000000 -0.914385 0.065322 0.779598 -0.059895 -0.528799 -0.758198 0.018030 -0.004458 0.167767 0.000000 0.000000 0.000000 0.190938 -0.172250 -1.023982 0.065244 0.032551 0.568819 0.009693 -0.033163 0.092808 0.000000 0.000000 0.000000 0.011957 0.446375 0.534409 0.013331 0.396105 -0.308636 0.052457 -0.638500 0.216277 0.000000 0.000000 0.000000 -0.042257 0.393216 -0.009803 -0.080257 0.491553 0.767988 -0.035216 -0.572526 0.043474 0.000000 0.000000 0.000000 
-3219.502930 912.462341 1111.286011 0.074239 0.027447 -0.600292 0.118711 0.686372 0.789614 0.067037 -0.184163 -0.184200 0.088259 0.229313 0.111394 0.032098 -0.409248 -0.024637 0.000000 0.000000 0.000000 -0.978240 0.323050 0.592026 -0.134914 -0.234594 -0.831207 0.087655 -0.915323 0.745229 0.000000 0.000000 0.000000 0.031446 -0.187798 -1.159810 0.109173 0.089759 0.702266 -0.028749 -0.484806 -0.009488 0.000000 0.000000 0.000000 -0.017209 0.419778 0.585610 -0.014771 0.347901 -0.263119 0.027547 -0.706673 0.225713 0.000000 0.000000 0.000000 -0.078994 0.330161 0.062798 -0.114379 0.479176 0.795995 -0.067101 -0.632007 0.036431 0.000000 0.000000 0.000000 
-3217.580322 912.929260 1111.399048 0.198776 0.265992 -0.717071 0.234313 1.067002 0.840006 0.178799 -0.195843 -0.180193 0.199324 0.246525 0.102682 0.056852 -1.018496 0.042753 0.000000 0.000000 0.000000 -0.922448 0.693432 0.260716 -0.237776 0.244855 -0.880651 0.182602 -2.192707 1.534977 0.000000 0.000000 0.000000 -0.193104 -0.166761 -1.256586 0.163006 0.185641 0.799660 -0.083714 -1.116207 -0.160497 0.000000 0.000000 0.000000 -0.059656 0.333651 0.644233 -0.057157 0.259272 -0.186334 -0.012518 -0.769326 0.226699 0.000000 0.000000 0.000000 -0.128345 0.194209 0.168745 -0.158504 0.437575 0.811234 -0.109285 -0.687896 0.024809 0.000000 0.000000 0.000000 
-3214.936279 913.509949 1111.432983 0.345498 0.725795 -0.891237 0.307696 1.199219 0.889998 0.249173 -0.191526 -0.178293 0.269390 0.243213 0.099774 0.074118 -1.792817 0.190568 0.000000 0.000000 0.000000 -0.754092 1.085108 -0.027719 -0.338294 0.726151 -1.005092 0.276958 -3.196044 2.363134 0.000000 0.000000 0.000000 -0.336424 -0.010003 -1.247960 0.207160 0.362399 0.724926 -0.138678 -1.731981 -0.315384 0.000000 0.000000 0.000000 -0.110500 0.063749 0.772449 -0.115912 0.138479 -0.121232 -0.072411 -0.806765 0.211202 0.000000 0.000000 0.000000 -0.171583 -0.127787 0.336143 -0.191512 0.358753 0.809756 -0.141262 -0.725841 0.015555 0.000000 0.000000 0.000000 
-3211.285400 914.221252 1111.301025 0.518446 1.574330 -1.164100 0.298954 0.878578 0.932532 0.239143 -0.169521 -0.179323 0.259663 0.207517 0.105863 0.072953 -2.891779 0.512513 0.000000 0.000000 0.000000 -0.427912 1.510233 -0.234963 -0.438076 1.192941 -1.283169 0.382653 -3.756465 3.360860 0.000000 0.000000 0.000000 -0.310641 0.403521 -1.046952 0.236958 0.689936 0.316740 -0.194817 -2.403766 -0.449801 0.000000 0.000000 0.000000 -0.164815 -0.549543 1.023016 -0.193470 -0.034513 -0.077270 -0.157787 -0.786987 0.167038 0.000000 0.000000 0.000000 -0.230315 -0.780691 0.598516 -0.232427 0.189488 0.785490 -0.180461 -0.684596 -0.004655 0.000000 0.000000 0.000000 
-3206.914551 915.046143 1111.089966 0.708802 2.641344 -1.491189 0.245877 0.319756 0.973486 0.185118 -0.126976 -0.186848 0.206784 0.136688 0.121088 0.060802 -4.156703 0.926791 0.000000 0.000000 0.000000 0.015728 1.961926 -0.395121 -0.537752 1.664936 -1.641614 0.488347 -4.049735 4.416112 0.000000 0.000000 0.000000 -0.191787 0.951348 -0.770805 0.257918 1.104082 -0.229865 -0.250968 -3.056931 -0.587551 0.000000 0.000000 0.000000 -0.228889 -1.341839 1.343082 -0.288653 -0.242588 -0.045455 -0.264965 -0.730725 0.102138 0.000000 0.000000 0.000000 -0.283832 -1.615853 0.922249 -0.263315 -0.019014 0.742324 -0.210411 -0.610861 -0.024345 0.000000 0.000000 0.000000 
-3202.343018 915.980042 1110.925049 0.885881 3.545790 -1.778489 0.194649 -0.156528 1.018469 0.132214 -0.075431 -0.194678 0.154958 0.054836 0.136358 0.049184 -5.075294 1.236451 0.000000 0.000000 0.000000 0.454831 2.306927 -0.459088 -0.597627 2.014677 -1.933920 0.543532 -3.925919 5.023183 0.000000 0.000000 0.000000 -0.090367 1.370858 -0.622293 0.265809 1.441059 -0.551559 -0.285070 -3.282390 -0.747459 0.000000 0.000000 0.000000 -0.313447 -1.953409 1.637927 -0.396929 -0.420476 -0.042270 -0.383026 -0.706118 0.041975 0.000000 0.000000 0.000000 -0.249404 -2.309736 1.232754 -0.206711 -0.117355 0.689186 -0.159227 -0.662415 0.001842 0.000000 0.000000 0.000000 
-3197.677734 917.035461 1110.859985 1.035905 4.123483 -1.983983 0.160414 -0.500942 1.060716 0.096672 -0.000476 -0.194240 0.119202 -0.034285 0.143265 0.041710 -5.367541 1.350160 0.000000 0.000000 0.000000 0.889761 2.466400 -0.355509 -0.579253 2.151593 -2.110154 0.515812 -3.030339 4.823790 0.000000 0.000000 0.000000 -0.071913 1.552115 -0.700886 0.251965 1.636969 -0.491980 -0.272427 -2.693235 -0.922274 0.000000 0.000000 0.000000 -0.426100 -2.213036 1.871798 -0.517402 -0.556165 -0.084496 -0.509259 -0.754910 0.000366 0.000000 0.000000 0.000000 -0.039583 -2.703045 1.497542 0.022248 -0.065222 0.641943 0.054321 -0.955830 0.118864 0.000000 0.000000 0.000000 
-3192.812012 918.198914 1110.840942 1.177267 4.546439 -2.154283 0.129010 -0.780852 1.108884 0.063648 0.081119 -0.192480 0.085576 -0.114946 0.146161 0.036631 -5.320211 1.358358 0.000000 0.000000 0.000000 1.326201 2.510619 -0.163132 -0.515782 2.158413 -2.226246 0.445325 -1.690367 4.203262 0.000000 0.000000 0.000000 -0.083992 1.604418 -0.883283 0.225703 1.750034 -0.235302 -0.237162 -1.681453 -1.114490 0.000000 0.000000 0.000000 -0.557973 -2.302207 2.083963 -0.650079 -0.658868 -0.154216 -0.645126 -0.839777 -0.034598 0.000000 0.000000 0.000000 0.256943 -2.967998 1.749174 0.338037 0.096697 0.590443 0.348712 -1.380411 0.282121 0.000000 0.000000 0.000000 
-3187.953613 919.432861 1110.832031 1.322715 4.940776 -2.332652 0.108926 -0.861527 1.196723 0.037776 0.117196 -0.208694 0.061336 -0.140349 0.157548 0.040253 -5.272534 1.325590 0.000000 0.000000 0.000000 1.644130 2.518866 -0.098567 -0.468971 2.178068 -2.258429 0.393726 -0.783594 3.757785 0.000000 0.000000 0.000000 -0.073130 1.596251 -1.004885 0.210885 1.793054 0.029925 -0.228061 -1.009893 -1.352534 0.000000 0.000000 0.000000 -0.691760 -2.397959 2.295758 -0.789131 -0.688127 -0.216453 -0.782457 -0.920771 -0.071315 0.000000 0.000000 0.000000 0.463654 -3.280286 2.009811 0.567609 0.400648 0.507641 0.556510 -1.767751 0.406124 0.000000 0.000000 0.000000 
-3183.327148 920.754395 1110.847046 1.469483 5.318405 -2.545223 0.116757 -0.592996 1.357472 0.031936 0.067374 -0.258755 0.061522 -0.079384 0.187423 0.054864 -5.375089 1.282160 0.000000 0.000000 0.000000 1.810614 2.467467 -0.242044 -0.441100 2.234170 -2.116062 0.360241 -0.551680 3.450209 0.000000 0.000000 0.000000 0.007333 1.436471 -1.036112 0.183691 1.640445 0.176005 -0.221190 -0.621154 -1.474657 0.000000 0.000000 0.000000 -0.811866 -2.526841 2.517492 -0.920108 -0.656943 -0.251054 -0.909385 -0.945091 -0.120435 0.000000 0.000000 0.000000 0.500446 -3.688891 2.298617 0.632622 0.890458 0.378177 0.601714 -2.034219 0.451421 0.000000 0.000000 0.000000 
-3178.707275 922.146667 1110.871948 1.618332 5.660148 -2.765594 0.139618 -0.111265 1.560138 0.036118 -0.026931 -0.327607 0.074240 0.021340 0.227813 0.077830 -5.471373 1.199210 0.000000 0.000000 0.000000 1.846639 2.377022 -0.541845 -0.426264 2.316417 -1.858094 0.344972 -0.761160 3.291205 0.000000 0.000000 0.000000 0.115822 1.222718 -0.985945 0.166539 1.416058 0.303258 -0.239850 -0.570845 -1.642525 0.000000 0.000000 0.000000 -0.933223 -2.653489 2.737443 -1.056885 -0.553816 -0.278319 -1.037293 -0.965479 -0.171103 0.000000 0.000000 0.000000 0.449065 -4.132199 2.597776 0.612255 1.522104 0.215385 0.561600 -2.259878 0.457736 0.000000 0.000000 0.000000 
-3173.625732 923.512329 1110.827026 1.786246 6.044511 -2.955035 0.141605 0.292250 1.732019 0.021733 -0.096775 -0.378476 0.066432 0.093116 0.259178 0.107568 -5.440289 1.055439 0.000000 0.000000 0.000000 1.708403 2.396693 -1.018383 -0.472604 2.524372 -1.671569 0.410892 -1.603361 3.926982 0.000000 0.000000 0.000000 0.170214 1.304779 -0.751456 0.253659 1.508527 0.583027 -0.404967 -1.790685 -2.379971 0.000000 0.000000 0.000000 -1.085668 -2.859660 2.942252 -1.237275 -0.303805 -0.323495 -1.194216 -1.098115 -0.200679 0.000000 0.000000 0.000000 0.376878 -4.617828 2.870582 0.571064 2.201141 0.033180 0.499512 -2.525681 0.459151 0.000000 0.000000 0.000000 
-3167.819092 924.775146 1110.735962 2.017931 6.483728 -3.090008 0.093243 0.509924 1.849290 -0.037666 -0.114166 -0.397731 0.009844 0.109936 0.274312 0.147724 -5.197117 0.814188 0.000000 0.000000 0.000000 1.424426 2.595047 -1.583204 -0.603714 2.842634 -1.773520 0.580414 -2.834544 5.695229 0.000000 0.000000 0.000000 0.045322 1.828919 -0.434839 0.506484 2.151100 1.310685 -0.779849 -4.670418 -3.989524 0.000000 0.000000 0.000000 -1.312023 -3.161877 3.121790 -1.508173 0.159182 -0.388339 -1.419663 -1.391261 -0.212075 0.000000 0.000000 0.000000 0.291870 -5.155350 3.110074 0.518446 2.946348 -0.187457 0.422712 -2.865467 0.462085 0.000000 0.000000 0.000000 
-3161.551270 926.013367 1110.576050 2.270744 6.968210 -3.192591 0.020418 0.646821 1.937946 -0.119396 -0.112041 -0.407525 -0.070332 0.107960 0.283307 0.193207 -4.831596 0.524297 0.000000 0.000000 0.000000 0.959958 2.917640 -2.233943 -0.815496 3.244100 -2.053444 0.812779 -4.657170 8.274467 0.000000 0.000000 0.000000 -0.120421 2.625483 -0.104612 0.879400 3.135372 2.377170 -1.286319 -8.851349 -6.081513 0.000000 0.000000 0.000000 -1.570283 -3.546694 3.287136 -1.823718 0.767665 -0.475304 -1.676294 -1.783865 -0.206943 0.000000 0.000000 0.000000 0.184548 -5.738676 3.322969 0.443753 3.739582 -0.426956 0.323336 -3.235147 0.458913 0.000000 0.000000 0.000000 
-3155.147461 927.361694 1110.192017 2.433258 7.547387 -3.292716 -0.029890 0.732373 1.994056 -0.177445 -0.123259 -0.416923 -0.126863 0.117799 0.288349 0.229584 -4.489790 0.288708 0.000000 0.000000 0.000000 0.179350 3.361925 -3.066066 -1.118747 3.795043 -2.307332 1.088358 -7.967368 11.428321 0.000000 0.000000 0.000000 -0.040952 3.577459 0.356128 1.310967 4.215393 3.434713 -1.850149 -14.215563 -8.223459 0.000000 0.000000 0.000000 -1.763344 -4.056199 3.456587 -2.082951 1.399119 -0.610567 -1.876853 -2.234139 -0.159005 0.000000 0.000000 0.000000 0.095749 -6.357972 3.492446 0.381757 4.433781 -0.611631 0.241393 -3.611507 0.463598 0.000000 0.000000 0.000000 
-3148.872803 928.789246 1109.475952 2.473075 8.271989 -3.394385 -0.036753 0.760491 1.982229 -0.188788 -0.160044 -0.418066 -0.137187 0.155566 0.286392 0.252509 -4.195401 0.133208 0.000000 0.000000 0.000000 -1.152058 4.018019 -3.870669 -1.530686 4.407531 -2.773604 1.442377 -13.506932 15.311570 0.000000 0.000000 0.000000 0.434290 4.662213 0.843199 1.805381 5.369328 4.667404 -2.504661 -21.171211 -10.525359 0.000000 0.000000 0.000000 -1.848593 -4.803248 3.661002 -2.252566 2.109186 -0.860894 -1.988112 -2.767200 -0.045905 0.000000 0.000000 0.000000 0.029489 -7.077983 3.609912 0.334956 5.020654 -0.711835 0.180754 -4.002454 0.478506 0.000000 0.000000 0.000000 
-3142.460693 930.326233 1108.536987 2.425499 9.089250 -3.492788 -0.025184 0.738768 1.924506 -0.179012 -0.199055 -0.408568 -0.127376 0.195501 0.277952 0.268336 -3.941655 0.024137 0.000000 0.000000 0.000000 -2.810476 4.875516 -4.485481 -1.955536 4.962560 -3.659880 1.890946 -20.560715 19.827034 0.000000 0.000000 0.000000 1.160783 5.833733 1.161648 2.355315 6.606891 6.279930 -3.166791 -29.301028 -12.809238 0.000000 0.000000 0.000000 -1.871245 -5.672499 3.863546 -2.368101 2.841238 -1.155678 -2.046151 -3.352677 0.107161 0.000000 0.000000 0.000000 -0.017721 -7.831966 3.681513 0.301860 5.508778 -0.760231 0.137231 -4.404876 0.501596 0.000000 0.000000 0.000000 
